<?xml version="1.0" encoding="UTF-8" standalone="no"?>
<!DOCTYPE svg PUBLIC "-//W3C//DTD SVG 1.1//EN" "http://www.w3.org/Graphics/SVG/1.1/DTD/svg11.dtd">
<svg width="100%" height="100%" viewBox="0 0 273 369" version="1.1" xmlns="http://www.w3.org/2000/svg" xmlns:xlink="http://www.w3.org/1999/xlink" xml:space="preserve" xmlns:serif="http://www.serif.com/" style="fill-rule:evenodd;clip-rule:evenodd;stroke-linejoin:round;stroke-miterlimit:2;">
    <g transform="matrix(1,0,0,1,-91.1575,-14.552)">
        <g>
            <g transform="matrix(-1,7.65714e-16,-7.65714e-16,-1,226.002,619.973)">
                <rect x="108.51" y="237.338" width="8.982" height="145.297" style="fill:rgb(242,242,242);"/>
            </g>
            <g transform="matrix(-1,7.65714e-16,-7.65714e-16,-1,297.858,619.973)">
                <rect x="144.438" y="237.338" width="8.982" height="145.297" style="fill:rgb(242,242,242);"/>
            </g>
            <g transform="matrix(-1,7.65714e-16,-7.65714e-16,-1,409.869,619.973)">
                <rect x="200.443" y="237.338" width="8.982" height="145.297" style="fill:rgb(242,242,242);"/>
            </g>
            <g transform="matrix(-1,7.65714e-16,-7.65714e-16,-1,443.684,619.973)">
                <rect x="217.351" y="237.338" width="8.982" height="145.297" style="fill:rgb(242,242,242);"/>
            </g>
            <path d="M103.755,235.224L91.532,171.745C89.285,160.074 97.399,148.944 109.198,147.514L174.554,139.592C174.554,139.592 183.536,213.034 183.536,209.335C183.536,205.637 272.564,218.581 239.277,237.074C205.991,255.566 116.171,250.282 103.755,235.224L103.755,235.224Z" style="fill:rgb(242,242,242);fill-rule:nonzero;"/>
            <path d="M249.345,343.56L260.414,354.628L275.698,362.534L274.117,376.238L245.129,373.075L241.44,365.696L242.494,359.372L240.385,349.358L249.345,343.56Z" style="fill:rgb(254,220,210);fill-rule:nonzero;"/>
            <path d="M272.009,370.967L272.914,359.339L304.159,374.129C304.159,374.129 306.579,380.981 299.044,382.035C291.51,383.089 241.44,383.089 241.44,380.454C241.44,377.819 240.07,364.327 240.07,364.327L270.428,373.075L272.009,370.967L272.009,370.967Z" style="fill:rgb(47,46,65);fill-rule:nonzero;"/>
            <path d="M209.536,312.818L201.531,326.268L197.627,343.028L183.956,344.866L179.891,315.99L186.135,310.599L192.525,310.066L201.713,305.559L209.536,312.818Z" style="fill:rgb(254,220,210);fill-rule:nonzero;"/>
            <path d="M188.546,341.526L200.039,339.543L193.389,373.466C193.389,373.466 187.343,377.497 184.468,370.453C181.593,363.41 169.277,314.878 171.831,314.229C174.386,313.581 187.126,308.935 187.126,308.935L186.114,340.512L188.546,341.526Z" style="fill:rgb(47,46,65);fill-rule:nonzero;"/>
            <path d="M174.818,61.132L173.233,93.361L198.594,93.89L198.594,66.164L174.818,61.132Z" style="fill:rgb(254,220,210);fill-rule:nonzero;"/>
            <path d="M174.818,61.132L173.233,93.361L198.594,93.89L198.594,66.164L174.818,61.132Z" style="fill-opacity:0.1;fill-rule:nonzero;"/>
            <path d="M132.022,194.277C132.022,194.277 120.398,224.393 128.852,236.545C137.305,248.697 176.932,255.566 176.932,255.566L193.311,270.888L236.636,354.368L261.997,348.556L226.069,262.963C226.069,262.963 204.934,228.62 197.009,223.865C189.084,219.11 174.326,201.256 174.326,201.256L132.022,194.277L132.022,194.277Z" style="fill:rgb(47,46,65);fill-rule:nonzero;"/>
            <path d="M203.878,196.919L220.153,208.445C220.153,208.445 277.847,223.865 259.355,259.793C240.863,295.721 213.388,321.61 213.388,321.61L189.084,307.873L228.182,252.924L159.496,211.184L203.878,196.919L203.878,196.919Z" style="fill:rgb(47,46,65);fill-rule:nonzero;"/>
            <path id="uuid-32c083fa-d2b9-413a-9921-933cc214e28e-458" d="M351.812,153.107C359.46,154.646 364.865,159.839 363.885,164.706C362.905,169.573 355.911,172.27 348.261,170.73C345.196,170.157 342.313,168.858 339.854,166.942L307.531,160.012L310.303,147.237L342.591,153.348C345.601,152.532 348.763,152.449 351.812,153.107L351.812,153.107Z" style="fill:rgb(254,220,210);fill-rule:nonzero;"/>
            <path id="uuid-3df95b4d-9d99-4974-98f2-e22ed77160d1-459" d="M229.756,235.661C235.346,241.103 237.069,248.398 233.606,251.955C230.142,255.512 222.804,253.983 217.212,248.538C214.949,246.394 213.232,243.739 212.205,240.795L188.812,217.439L198.072,208.211L221.88,230.861C224.851,231.809 227.552,233.455 229.756,235.661Z" style="fill:rgb(254,220,210);fill-rule:nonzero;"/>
            <path d="M274.627,136.512L210.849,85.4C210.849,85.4 198.433,88.774 200.039,100.478C201.646,112.183 229.954,141.789 229.954,141.789L278.62,163.868L334.343,166.715L336.638,150.421L274.627,136.512L274.627,136.512Z" style="fill:rgb(177,176,176);fill-rule:nonzero;"/>
            <path d="M197.273,82.002L164.395,82.002L140.211,98.381L142.325,162.84C142.325,162.84 146.744,179.027 131.758,194.013C122.775,202.995 125.946,208.278 125.946,208.278L179.309,212.505L211.275,203.259L199.651,174.2L201.764,165.218C201.764,165.218 223.427,149.895 219.728,134.045C216.03,118.194 211.275,85.436 211.275,85.436L197.273,82.002Z" style="fill:rgb(204,204,204);fill-rule:nonzero;"/>
            <path d="M174.29,176.841L150.514,98.645C150.514,98.645 138.362,94.418 133.078,104.985C127.795,115.552 134.441,155.971 134.441,155.971L162.138,201.674L206.52,235.489L217.615,223.336L174.29,176.841L174.29,176.841Z" style="fill:rgb(177,176,176);fill-rule:nonzero;"/>
            <circle cx="189.876" cy="53.999" r="22.191" style="fill:rgb(253,220,211);"/>
            <path d="M178.502,16.848C178.502,16.848 169.606,10.424 161.699,24.261C156.298,33.713 153.433,51.697 152.16,62.146C151.574,66.956 154.067,71.613 158.388,73.804L186.409,88.012C186.409,88.012 176.031,48.476 190.362,42.546C204.694,36.616 204.2,38.098 204.2,38.098C204.2,38.098 215.566,62.808 200.74,73.68L213.095,81.587C213.095,81.587 221.496,35.133 206.176,26.238C190.856,17.342 194.316,10.918 178.502,16.848Z" style="fill:rgb(61,6,13);fill-rule:nonzero;"/>
        </g>
        <path d="M921,383.583L0,383.583L0,381.583L921,381.583C921.552,381.583 922,382.03 922,382.583C922,383.135 921.552,383.583 921,383.583Z" style="fill:rgb(63,61,86);fill-rule:nonzero;"/>
    </g>
</svg>
