<?xml version="1.0" encoding="UTF-8" standalone="no"?>
<!DOCTYPE svg PUBLIC "-//W3C//DTD SVG 1.1//EN" "http://www.w3.org/Graphics/SVG/1.1/DTD/svg11.dtd">
<svg width="100%" height="100%" viewBox="0 0 273 369" version="1.1" xmlns="http://www.w3.org/2000/svg" xmlns:xlink="http://www.w3.org/1999/xlink" xml:space="preserve" xmlns:serif="http://www.serif.com/" style="fill-rule:evenodd;clip-rule:evenodd;stroke-linejoin:round;stroke-miterlimit:2;">
    <g transform="matrix(1,0,0,1,-568.028,-14.552)">
        <g>
            <g transform="matrix(0.953926,0,0,0.99458,481.071,0.0788658)">
                <rect x="91.157" y="14.552" width="286.021" height="369.031" style="fill:none;"/>
            </g>
            <g transform="matrix(0.698507,0,0,0.959072,211.753,15.663)">
                <path d="M753,60.583L748.361,92.361L723,92.89L723,65.164L753,60.583Z" style="fill:rgb(255,182,182);fill-rule:nonzero;"/>
            </g>
            <g transform="matrix(0.698507,0,0,0.959072,211.753,15.663)">
                <path d="M753,60.583L748.767,93.361L723.406,93.89L723.406,66.164L753,60.583Z" style="fill-opacity:0.1;fill-rule:nonzero;"/>
            </g>
            <g transform="matrix(0.959072,0,0,0.959072,15.5476,15.663)">
                <rect x="804.508" y="237.338" width="8.982" height="145.297" style="fill:rgb(242,242,242);"/>
            </g>
            <g transform="matrix(0.959072,0,0,0.959072,15.5476,15.663)">
                <rect x="768.58" y="237.338" width="8.982" height="145.297" style="fill:rgb(242,242,242);"/>
            </g>
            <g transform="matrix(0.959072,0,0,0.959072,15.5476,15.663)">
                <rect x="712.574" y="237.338" width="8.982" height="145.297" style="fill:rgb(242,242,242);"/>
            </g>
            <g transform="matrix(0.959072,0,0,0.959072,15.5476,15.663)">
                <rect x="695.667" y="237.338" width="8.982" height="145.297" style="fill:rgb(242,242,242);"/>
            </g>
            <g transform="matrix(0.959072,0,0,0.959072,15.5476,15.663)">
                <path d="M818.245,235.224L830.468,171.745C832.715,160.074 824.601,148.944 812.802,147.514L747.446,139.592C747.446,139.592 738.464,213.034 738.464,209.335C738.464,205.637 649.436,218.581 682.723,237.074C716.009,255.566 805.829,250.282 818.245,235.224L818.245,235.224Z" style="fill:rgb(242,242,242);fill-rule:nonzero;"/>
            </g>
            <g transform="matrix(0.959072,0,0,0.959072,15.5476,15.663)">
                <path d="M672.655,343.56L661.586,354.628L646.302,362.534L647.883,376.238L676.871,373.075L680.56,365.696L679.506,359.372L681.615,349.358L672.655,343.56Z" style="fill:rgb(255,182,182);fill-rule:nonzero;"/>
            </g>
            <g transform="matrix(0.959072,0,0,0.959072,15.5476,15.663)">
                <path d="M649.991,370.967L649.086,359.339L617.841,374.129C617.841,374.129 615.421,380.981 622.956,382.035C630.49,383.089 680.56,383.089 680.56,380.454C680.56,377.819 681.93,364.327 681.93,364.327L651.572,373.075L649.991,370.967L649.991,370.967Z" style="fill:rgb(47,46,65);fill-rule:nonzero;"/>
            </g>
            <g transform="matrix(0.959072,0,0,0.959072,15.5476,15.663)">
                <path d="M646.47,269.559L639.957,283.792L628.389,296.533L634.65,308.824L660.715,295.751L661.6,287.548L658.406,281.988L656.889,271.868L646.47,269.559Z" style="fill:rgb(255,182,182);fill-rule:nonzero;"/>
            </g>
            <g transform="matrix(0.959072,0,0,0.959072,15.5476,15.663)">
                <path d="M634.788,303.149L629.884,292.567L605.759,317.326C605.759,317.326 605.881,324.591 613.31,322.951C620.739,321.311 667.665,303.849 666.746,301.379C665.827,298.91 662.406,285.787 662.406,285.787L637.005,304.574L634.788,303.149L634.788,303.149Z" style="fill:rgb(47,46,65);fill-rule:nonzero;"/>
            </g>
            <g transform="matrix(0.959072,0,0,0.959072,15.5476,15.663)">
                <path d="M789.978,194.277C789.978,194.277 801.602,224.393 793.148,236.545C784.695,248.697 745.068,255.566 745.068,255.566L728.689,270.888L685.364,354.368L660.003,348.556L695.931,262.963C695.931,262.963 717.065,228.62 724.991,223.865C732.916,219.11 747.674,201.256 747.674,201.256L789.978,194.277L789.978,194.277Z" style="fill:rgb(47,46,65);fill-rule:nonzero;"/>
            </g>
            <g transform="matrix(0.959072,0,0,0.959072,15.5476,15.663)">
                <path d="M745.03,208.318L726.294,201.482C726.294,201.482 680.806,162.788 661.765,198.428C642.723,234.068 637.047,271.39 637.047,271.39L662.166,283.573L685.139,220.167L758.528,252.939L745.03,208.318L745.03,208.318Z" style="fill:rgb(47,46,65);fill-rule:nonzero;"/>
            </g>
            <g id="uuid-f8e61c27-c57f-4b74-9b81-e5dadccc9125-460" transform="matrix(0.959072,0,0,0.959072,15.5476,15.663)">
                <path d="M639.405,228.289C634.383,234.259 633.392,241.689 637.192,244.885C640.992,248.08 648.142,245.831 653.165,239.858C655.205,237.499 656.649,234.687 657.379,231.656L678.338,206.092L668.208,197.83L646.766,222.731C643.904,223.969 641.38,225.875 639.405,228.289L639.405,228.289Z" style="fill:rgb(255,182,182);fill-rule:nonzero;"/>
            </g>
            <g id="uuid-b8d4031a-9298-4827-ae0e-c4fc86cbbe53-461" transform="matrix(0.959072,0,0,0.959072,15.5476,15.663)">
                <path d="M692.244,235.661C686.654,241.103 684.931,248.398 688.394,251.955C691.858,255.512 699.196,253.983 704.788,248.538C707.051,246.394 708.768,243.739 709.795,240.795L733.188,217.439L723.928,208.211L700.12,230.861C697.149,231.809 694.448,233.455 692.244,235.661Z" style="fill:rgb(255,182,182);fill-rule:nonzero;"/>
            </g>
            <g transform="matrix(0.959072,0,0,0.959072,15.5476,15.663)">
                <path d="M689.424,167.207L707.447,87.488C707.447,87.488 719.259,82.388 725.297,92.542C731.336,102.697 727.649,143.492 727.649,143.492L703.351,191.089L661.548,228.044L649.598,216.732L689.424,167.207L689.424,167.207Z" style="fill:rgb(212,56,103);fill-rule:nonzero;"/>
            </g>
            <g transform="matrix(0.959072,0,0,0.959072,15.5476,15.663)">
                <path d="M724.727,82.002L757.605,82.002L781.789,98.381L779.675,162.84C779.675,162.84 775.256,179.027 790.242,194.013C799.224,202.995 796.054,208.278 796.054,208.278L742.691,212.505L710.725,203.259L722.349,174.2L720.236,165.218C720.236,165.218 698.573,149.895 702.272,134.045C705.97,118.194 710.725,85.436 710.725,85.436L724.727,82.002Z" style="fill:rgb(255,62,116);fill-rule:nonzero;"/>
            </g>
            <g transform="matrix(0.959072,0,0,0.959072,15.5476,15.663)">
                <path d="M747.71,176.841L771.486,98.645C771.486,98.645 783.638,94.418 788.922,104.985C794.205,115.552 787.559,155.971 787.559,155.971L759.862,201.674L715.48,235.489L704.385,223.336L747.71,176.841L747.71,176.841Z" style="fill:rgb(212,56,103);fill-rule:nonzero;"/>
            </g>
            <g transform="matrix(0.959072,0,0,0.959072,15.5476,15.663)">
                <circle cx="736.024" cy="49.77" r="23.625" style="fill:rgb(255,182,182);"/>
                <path d="M737.91,18.008C737.226,18.407 736.31,17.803 736.091,17.043C735.872,16.282 736.127,15.475 736.38,14.725L737.655,10.949C738.559,8.272 739.519,5.5 741.477,3.462C744.432,0.386 749.128,-0.396 753.356,0.171C758.785,0.899 764.142,3.839 766.666,8.7C769.191,13.562 768.116,20.345 763.554,23.378C770.056,30.829 772.322,39.134 771.964,49.016C771.606,58.898 760.837,67.993 753.814,74.955C752.246,74.004 750.82,69.549 751.682,67.93C752.545,66.311 751.309,64.436 752.377,62.945C753.445,61.454 754.339,63.828 753.259,62.346C752.578,61.411 755.237,59.259 754.224,58.699C749.325,55.991 747.696,49.884 744.619,45.208C740.908,39.568 734.556,35.748 727.834,35.114C724.131,34.765 720.22,35.398 717.184,37.547C714.149,39.697 712.184,43.539 712.888,47.191C711.065,45.34 710.158,42.628 710.5,40.053C710.843,37.478 712.427,35.096 714.67,33.786C713.306,29.276 714.474,24.088 717.64,20.598C720.805,17.108 733.646,17.703 738.267,18.621" style="fill:rgb(47,46,65);fill-rule:nonzero;"/>
                <path d="M738.627,35.251C744.748,35.912 749.167,41.214 752.899,46.11C755.05,48.932 757.303,52.049 757.249,55.597C757.194,59.184 754.796,62.261 753.65,65.66C751.776,71.216 753.602,77.827 758.062,81.635C753.655,82.471 748.892,79.167 748.131,74.746C747.245,69.6 751.146,64.634 750.684,59.433C750.277,54.851 746.666,51.324 743.596,47.898C740.526,44.472 737.643,39.926 739.056,35.548" style="fill:rgb(47,46,65);fill-rule:nonzero;"/>
            </g>
        </g>
        <path d="M921,383.583L0,383.583L0,381.583L921,381.583C921.552,381.583 922,382.03 922,382.583C922,383.135 921.552,383.583 921,383.583Z" style="fill:rgb(63,61,86);fill-rule:nonzero;"/>
    </g>
</svg>
