<?xml version="1.0" encoding="UTF-8" standalone="no"?>
<!DOCTYPE svg PUBLIC "-//W3C//DTD SVG 1.1//EN" "http://www.w3.org/Graphics/SVG/1.1/DTD/svg11.dtd">
<svg width="100%" height="100%" viewBox="0 0 7200 7200" version="1.1" xmlns="http://www.w3.org/2000/svg" xmlns:xlink="http://www.w3.org/1999/xlink" xml:space="preserve" xmlns:serif="http://www.serif.com/" style="fill-rule:evenodd;clip-rule:evenodd;stroke-linejoin:round;stroke-miterlimit:2;">
    <g transform="matrix(1,0,0,1,-1800,-1762.5)">
        <circle cx="5400" cy="5362.5" r="3600"/>
        <g transform="matrix(11.9689,0,0,11.9689,3245.59,3648.01)">
            <path d="M323.22,73.189L323.22,82.477C323.22,180.186 248.916,292.755 113.313,292.755C71.331,292.755 32.693,280.495 -0,259.319C5.944,260.062 11.517,260.433 17.461,260.433C52.384,260.433 83.963,248.545 109.226,228.854C76.904,228.483 49.783,206.935 40.495,177.585C44.954,178.328 49.412,179.071 54.241,179.071C60.929,179.071 67.616,177.957 73.56,176.471C39.752,169.412 14.489,139.69 14.489,104.025L14.489,102.91C24.52,108.483 35.666,111.827 47.926,112.198C28.235,99.195 15.232,76.533 15.232,50.898C15.232,37.152 18.576,24.52 24.892,13.746C61.3,58.328 115.913,87.678 177.214,90.65C176.099,85.449 175.356,79.876 175.356,73.932C175.356,33.065 208.421,0 249.288,0C270.464,0 289.783,9.288 303.158,23.406C319.876,20.062 335.851,14.118 349.969,5.573C344.396,22.663 332.879,37.152 317.647,46.44C332.508,44.582 346.625,40.495 360,34.923C349.969,49.783 337.337,62.786 323.22,73.189Z" style="fill:white;fill-rule:nonzero;"/>
        </g>
    </g>
</svg>
